# xmcd
#
# Track frame offsets:
#	150
#	18066
#	31668
#	43596
#	58785
#	69754
#	82653
#	98141
#	110873
#	123389
#	135566
#	150580
#	166137
#	192894
#	206769
#	220037
#	234654
#
# Disc length: 3341 seconds
#
# Revision: 1
# Processed by: cddbd v1.5.2PL0 Copyright (c) Steve Scherf et al.
# Submitted via: audiograbber 1.83.01
#
DISCID=d50d0b11
DTITLE=Ron Kendricks - Live In Concert
DYEAR=2006
DGENRE=
TTITLE0=Mercury Blues
TTITLE1=Pop A Top
TTITLE2=Six Days On The Road
TTITLE3=Luchenbach Texas
TTITLE4=On The Road Again
TTITLE5=Folsom Prison Blues
TTITLE6=Love To Lay You Down
TTITLE7=Tight Fittin Jeans
TTITLE8=Take This Job And Shove It
TTITLE9=Big City
TTITLE10=Ramblin Fever
TTITLE11=Thats The Way Love Goes
TTITLE12=Cotton Eyed Joe
TTITLE13=Houston
TTITLE14=Games People Play
TTITLE15=Amrillo By Mornin
TTITLE16=Where The Sidewalk Ends
EXTD=
EXTT0=
EXTT1=
EXTT2=
EXTT3=
EXTT4=
EXTT5=
EXTT6=
EXTT7=
EXTT8=
EXTT9=
EXTT10=
EXTT11=
EXTT12=
EXTT13=
EXTT14=
EXTT15=
EXTT16=
PLAYORDER=
